<svg id="レイヤー_1" data-name="レイヤー 1" xmlns="http://www.w3.org/2000/svg" viewBox="0 0 394 295.5"><defs><style>.cls-1{fill:#e8373d;}.cls-2{fill:#fff;}</style></defs><title>JRK number</title><path class="cls-1" d="M354.59,295.5H39.4A39.4,39.4,0,0,1,0,256.11V39.41A39.41,39.41,0,0,1,39.4,0H354.59A39.42,39.42,0,0,1,394,39.41v216.7a39.4,39.4,0,0,1-39.41,39.39"/><path class="cls-2" d="M96.73,44.46h45.42V171.77c0,57.37-27.49,77.39-71.72,77.39-10.46,0-24.2-1.79-33.17-4.78l5.08-36.76a74.72,74.72,0,0,0,23.31,3.59c19.13,0,31.08-8.67,31.08-40Z"/><path class="cls-2" d="M227,194.18l-14.34,51.69H165.46L227,44.46h59.77l62.45,201.41h-49l-15.54-51.69Zm51.1-34.07-12.55-42.73c-3.59-11.95-7.17-26.9-10.16-38.85h-.6c-3,12-6,27.19-9.26,38.85l-12,42.73Z"/></svg>