<?xml version="1.0" encoding="UTF-8"?>
<svg width="170px" height="170px" viewBox="0 0 170 170" version="1.1" xmlns="http://www.w3.org/2000/svg">
<rect fill="#F0862B" rx="19.75" ry="19.75" width="170" height="170"/>
<rect fill="#FFF" x="19" y="19" width="132" height="132"/>
<g transform="translate(36,47)">
	<path d="M10.758,71.724 C9.112,71.724 7.457,71.641 5.835,71.477 4.202,71.314 2.581,71.064 1.02,70.735 L0.45,70.616 V60.464 L1.392,60.775 C2.531,61.154 3.647,61.44 4.709,61.63 5.766,61.817 6.893,61.911 8.057,61.911 12.146,61.911 15.001,60.68 16.785,58.144 18.601,55.57 19.52,51.176 19.52,45.082 L19.52,0.455 H32.034 V47.177 C32.034,55.502 30.307,61.734 26.9,65.7 23.468,69.699 18.036,71.724 10.758,71.724"/>
	<path d="M63.232,71.14 V9.978 H41.295 V0.455 H97.627 V9.978 H75.69 V71.14"/>
</g>
</svg>