<?xml version="1.0" encoding="UTF-8"?>
<svg width="170px" height="170px" viewBox="0 0 170 170" version="1.1" xmlns="http://www.w3.org/2000/svg">
<rect fill="#F18E41" rx="19.75" ry="19.75" width="170" height="170"/>
<rect fill="#FFF" x="19" y="19" width="132" height="132"/>
<path d="M47.192,121.935 C45.591,121.935 43.97,121.848 42.375,121.679 40.774,121.508 39.187,121.25 37.656,120.91 L36.711,120.701 V109.259 L38.32,109.823 C39.389,110.197 40.441,110.483 41.447,110.674 42.437,110.858 43.493,110.951 44.581,110.951 48.342,110.951 50.959,109.766 52.582,107.33 54.287,104.773 55.151,100.365 55.151,94.228 L55.151,48.145 H68.281 V96.371 C68.281,104.985 66.576,111.45 63.214,115.587 59.79,119.798 54.4,121.935 47.192,121.935"/>
<path d="M103.591,122.307 C94.69,122.307 87.824,119.604 83.185,114.273 78.589,108.992 76.26,101.149 76.26,90.966 L76.26,47.771 H88.472 V90.667 C88.472,97.937 89.772,103.348 92.334,106.75 94.854,110.096 98.633,111.723 103.887,111.723 109.203,111.723 113.076,109.968 115.729,106.362 118.43,102.689 119.799,97.108 119.799,89.77 L119.799,47.772 H131.367 V89.972 C131.367,100.576 129.04,108.692 124.45,114.089 119.81,119.542 112.792,122.307 103.591,122.307"/>
</svg>