<?xml version="1.0" encoding="utf-8"?>
<svg version="1.1" xmlns="http://www.w3.org/2000/svg" width="401.1" height="401.1" viewBox="0 0 401.1 401.1">
<path fill="#1D5BA9" d="M358,401.1H43c-23.8,0-43-19.3-43-43V43C0,19.3,19.3,0,43,0h315c23.8,0,43,19.3,43,43v315
	C401.1,381.8,381.8,401.1,358,401.1"/>
<g fill="#FFF">
	<path d="M322.8,188.1c2.2,1,5.6,3,11.1,6.6c1.1,0.7,2.5,0,2.5-1.3c0,0,2.8-19.2,0-63c-0.1-1.3-1.5-2.1-2.6-1.2
		c-13.3,10.5-74.4,58.3-86.5,58.3l60.5-47c0,0,22.9-18.8,25.1-38.7c0,0,21.8-46.4-34.5-46.7L257,52c0,0-21.8-12.2-56.5-12.2
		S144,52,144,52l-41.4,3c-56.3,0.3-34.5,46.7-34.5,46.7c2.2,19.9,25.1,38.7,25.1,38.7l60.5,47c-12.1,0-73.2-47.7-86.5-58.3
		c-1-0.8-2.5-0.1-2.6,1.2c-2.9,35.8,0,63,0,63c0,1.3,1.4,2,2.5,1.3c5.6-3.7,9.1-5.7,11.2-6.7c1-0.5,1.9,0.8,1.1,1.6
		c-35.5,37.4-21.2,86.3-18.5,94.2c0.3,0.9,0.9,1.5,1.8,1.8c14.9,4.8,137.8,16.4,137.8,16.4s122.9-11.6,137.8-16.4
		c0.9-0.3,1.5-0.9,1.8-1.8c2.6-7.9,17-56.7-18.5-94.1C320.9,188.9,321.8,187.6,322.8,188.1 M199.7,107.5l-56.9,0
		c-3.2,0-5.3-2.6-4.5-5.8c5.8-24.4,11.9-39.4,18.6-41.1c0.6-0.2,1.5,0.1,1.9,0.5c3.8,3.3,6.1,10.5,6.1,10.5
		c20.9-3.8,32.6-3.8,35.7-3.9c3.2,0.1,14.9,0.1,35.7,3.9c0,0,2.2-7.2,6.1-10.5c0.5-0.4,1.4-0.6,1.9-0.5
		c6.7,1.7,12.8,16.7,18.6,41.1c0.7,3.2-1.3,5.8-4.5,5.8l-56.9,0H199.7"/>
	<path d="M335.8,292.5l-135.3,16l-135.3-16c-1.3-0.2-2.4,0.9-2.3,2.2c0.9,10.5,7.5,51.1,58.6,52.6l76.6,4.8
		c1.6,0.1,3.2,0.1,4.9,0l76.6-4.8c51.1-1.4,57.7-42,58.6-52.6C338.2,293.4,337.1,292.4,335.8,292.5"/>
</g>
<g fill="#FCE3DF">
	<path d="M126.3,253.1c0,0-38.6,4.4-42.4-5.7c-3.8-10.1,0.1-10.1,3.3-11.8c0,0,8.1-6.5,22.5,3.8
		S126.3,253.1,126.3,253.1"/>
	<path d="M274.8,253.1c0,0,38.6,4.4,42.4-5.7c3.8-10.1-0.1-10.1-3.3-11.8c0,0-8.1-6.5-22.5,3.8
		C276.9,249.6,274.8,253.1,274.8,253.1"/>
</g>
</svg>